<mxfile host="app.diagrams.net" modified="2020-10-05T22:27:07.836Z" agent="5.0 (Windows NT 10.0; Win64; x64) AppleWebKit/537.36 (KHTML, like Gecko) Chrome/85.0.4183.121 Safari/537.36" etag="KbdYOd6b2bzEsjFLsTaH" version="13.7.7" type="github">
  <diagram id="HgrDUghxt44fz8zE1IRK" name="Page-1">
    <mxGraphModel dx="1422" dy="745" grid="1" gridSize="10" guides="1" tooltips="1" connect="1" arrows="1" fold="1" page="1" pageScale="1" pageWidth="827" pageHeight="1169" math="0" shadow="0">
      <root>
        <mxCell id="0" />
        <mxCell id="1" parent="0" />
        <mxCell id="pyQujdDZvNyLxtdFf1d--1" value="User" style="shape=umlActor;verticalLabelPosition=bottom;verticalAlign=top;html=1;" parent="1" vertex="1">
          <mxGeometry x="40" y="40" width="50" height="90" as="geometry" />
        </mxCell>
        <mxCell id="pyQujdDZvNyLxtdFf1d--2" value="" style="rounded=0;whiteSpace=wrap;html=1;" parent="1" vertex="1">
          <mxGeometry x="280" y="180" width="190" height="110" as="geometry" />
        </mxCell>
        <mxCell id="R4qTk84UO3Q1SSocXt8V-1" value="" style="ellipse;whiteSpace=wrap;html=1;aspect=fixed;" vertex="1" parent="1">
          <mxGeometry x="330" y="320" width="200" height="200" as="geometry" />
        </mxCell>
        <mxCell id="R4qTk84UO3Q1SSocXt8V-2" value="User" style="shape=umlActor;verticalLabelPosition=bottom;verticalAlign=top;html=1;" vertex="1" parent="1">
          <mxGeometry x="80" y="560" width="50" height="90" as="geometry" />
        </mxCell>
        <mxCell id="R4qTk84UO3Q1SSocXt8V-3" value="" style="whiteSpace=wrap;html=1;aspect=fixed;" vertex="1" parent="1">
          <mxGeometry x="250" y="680" width="80" height="80" as="geometry" />
        </mxCell>
        <mxCell id="R4qTk84UO3Q1SSocXt8V-4" value="" style="shape=tape;whiteSpace=wrap;html=1;" vertex="1" parent="1">
          <mxGeometry x="350" y="330" width="120" height="100" as="geometry" />
        </mxCell>
        <mxCell id="R4qTk84UO3Q1SSocXt8V-5" value="" style="shape=tape;whiteSpace=wrap;html=1;" vertex="1" parent="1">
          <mxGeometry x="120" y="360" width="120" height="100" as="geometry" />
        </mxCell>
      </root>
    </mxGraphModel>
  </diagram>
</mxfile>
